<svg width="20" height="20" viewBox="0 0 20 20" fill="none" xmlns="http://www.w3.org/2000/svg">
<path d="M9.99976 1.54169C14.6652 1.54169 18.4586 5.33432 18.4587 9.99969C18.4587 14.6652 14.6653 18.4587 9.99976 18.4587C5.33438 18.4585 1.54175 14.6651 1.54175 9.99969C1.54192 5.33443 5.33449 1.54186 9.99976 1.54169ZM9.99976 1.79169C5.47387 1.79186 1.79192 5.47381 1.79175 9.99969C1.79175 14.5257 5.47376 18.2085 9.99976 18.2087C14.5259 18.2087 18.2087 14.5258 18.2087 9.99969C18.2086 5.4737 14.5258 1.79169 9.99976 1.79169Z" fill="#292D32" stroke="#393939"/>
<path d="M12.3586 7.51874C12.3944 7.5188 12.4251 7.53242 12.4465 7.55389C12.4679 7.57541 12.4817 7.60604 12.4817 7.64178C12.4817 7.67754 12.468 7.70818 12.4465 7.72968L7.72388 12.4523L7.71802 12.4592C7.7147 12.4627 7.70737 12.4683 7.6936 12.4738C7.67903 12.4796 7.66072 12.4836 7.64185 12.4836C7.62416 12.4836 7.60829 12.4802 7.59497 12.4748C7.58222 12.4696 7.5685 12.461 7.55396 12.4465C7.53248 12.425 7.51886 12.3943 7.5188 12.3586C7.5188 12.3228 7.53247 12.2922 7.55396 12.2707L12.2708 7.55389C12.2923 7.53241 12.3228 7.51874 12.3586 7.51874Z" fill="#292D32" stroke="#393939"/>
<path d="M7.64185 7.51874C7.67764 7.51877 7.70824 7.53239 7.72974 7.55389L12.4465 12.2707C12.4679 12.2922 12.4817 12.3229 12.4817 12.3586C12.4816 12.3943 12.468 12.425 12.4465 12.4465C12.4319 12.4612 12.4174 12.4696 12.4045 12.4748C12.3914 12.4801 12.3761 12.4836 12.3586 12.4836C12.341 12.4836 12.3251 12.4802 12.3118 12.4748C12.299 12.4696 12.2853 12.461 12.2708 12.4465L7.55396 7.72968C7.53245 7.70817 7.51883 7.67758 7.5188 7.64178C7.5188 7.60593 7.53243 7.57542 7.55396 7.55389C7.57548 7.53237 7.60599 7.51874 7.64185 7.51874Z" fill="#292D32" stroke="#393939"/>
</svg>
